<svg width="170" height="68" viewBox="0 0 170 68" fill="none" xmlns="http://www.w3.org/2000/svg">
<mask id="mask0_1_889" style="mask-type:luminance" maskUnits="userSpaceOnUse" x="3" y="16" width="164" height="36">
<path d="M166.083 16.3831H3.78857V51.0946H166.083V16.3831Z" fill="white"/>
</mask>
<g mask="url(#mask0_1_889)">
<path d="M143.454 51.197C136.491 51.197 129.426 51.197 122.463 51.197C121.132 51.197 120.825 50.8898 120.825 49.5587C120.825 39.1145 120.825 28.6703 120.825 18.1238C120.825 16.7926 121.234 16.3831 122.566 16.3831C136.593 16.3831 150.519 16.3831 164.547 16.3831C165.776 16.3831 166.185 16.7926 166.185 18.0214C166.185 28.5679 166.185 39.1145 166.185 49.6611C166.185 50.685 165.776 51.0946 164.547 51.0946C157.482 51.197 150.519 51.197 143.454 51.197ZM135.877 28.9775V44.2342H141.201C141.201 41.572 141.201 38.9097 141.201 36.2475C141.201 35.8379 141.201 35.4283 141.304 35.0188C141.611 33.8924 142.84 33.1757 143.966 33.5852C144.99 33.8924 145.502 34.7116 145.502 36.0427C145.502 38.5001 145.502 41.06 145.502 43.5175C145.502 43.8246 145.502 44.0294 145.502 44.3366H150.826C150.826 40.6504 150.929 36.9642 150.826 33.2781C150.724 31.1278 149.598 29.5919 147.447 28.9775C145.195 28.3631 143.249 28.8751 141.611 30.6158C141.508 30.7182 141.406 30.8206 141.099 31.0254V29.0799H135.877V28.9775ZM153.796 23.653V44.2342H159.12V23.653H153.796ZM133.215 38.7049H127.685V44.1318H133.215V38.7049Z" fill="black"/>
<path d="M18.0213 33.3805C18.8405 33.8924 19.6596 34.1996 20.3764 34.7116C22.7315 36.4523 22.7315 41.4696 18.8405 43.1079C17.5094 43.6199 16.0758 43.927 14.6423 44.0294C11.4681 44.1318 8.3963 44.0294 5.22209 44.0294C4.19815 44.0294 3.78857 43.7222 3.78857 42.6983C3.78857 36.7595 3.78857 30.8206 3.78857 24.9842C3.78857 24.165 4.09576 23.7554 4.81251 23.7554C8.49869 23.7554 12.2873 23.7554 15.9735 23.9602C17.8165 24.0626 19.4548 24.8818 20.3764 26.6225C21.6051 28.8751 20.8884 31.6398 18.7381 32.9709C18.5333 33.0733 18.2261 33.2781 18.0213 33.3805ZM9.21545 39.5241C9.42024 39.5241 9.42024 39.6265 9.52263 39.6265C10.9562 39.6265 12.2873 39.6265 13.7208 39.6265C14.1304 39.6265 14.5399 39.5241 14.9495 39.4217C15.8711 39.2169 16.2806 38.5002 16.2806 37.681C16.2806 36.8619 15.7687 36.2475 14.8471 35.9403C14.6423 35.9403 14.5399 35.8379 14.3351 35.8379C12.5945 35.8379 10.8538 35.8379 9.11306 35.8379L9.21545 39.5241ZM9.21545 31.8446C10.7514 31.8446 12.1849 31.9469 13.6184 31.8446C14.1304 31.8446 14.7447 31.5374 15.1543 31.2302C15.6663 30.8206 15.6663 30.1039 15.4615 29.3871C15.1543 28.6703 14.5399 28.3632 13.8232 28.3632C12.2873 28.2608 10.8538 28.3632 9.31785 28.3632V31.8446H9.21545Z" fill="black"/>
<path d="M38.3977 37.0666C39.6264 38.8073 40.7527 40.548 41.9815 42.2887C42.1862 42.5959 42.2886 43.1079 42.1862 43.5175C41.9815 44.0294 41.4695 44.1318 40.9575 44.0294C39.9336 44.0294 38.9096 44.0294 37.8857 44.0294C37.1689 44.0294 36.7594 43.8246 36.3498 43.2103C35.3258 41.572 34.1995 40.0361 33.1756 38.3978C32.8684 37.9882 32.6636 37.7834 32.1516 37.7834C31.5373 37.7834 30.9229 37.7834 30.2062 37.7834C30.2062 39.2169 30.2062 40.548 30.2062 41.9816C30.2062 42.2887 30.2062 42.5959 30.2062 43.0055C30.2062 43.6199 29.7966 44.0294 29.1822 44.0294C28.0559 44.0294 26.9295 44.0294 25.7008 44.0294C25.0865 44.0294 24.6769 43.7222 24.6769 43.1079C24.6769 42.9031 24.6769 42.5959 24.6769 42.3911C24.6769 36.7595 24.6769 31.1278 24.6769 25.4961C24.6769 23.9602 24.8817 23.7554 26.4176 23.7554C29.5918 23.7554 32.8684 23.7554 36.0426 23.9602C38.1929 24.0626 40.036 24.8818 41.3671 26.6225C43.5174 29.3871 43.2102 34.6092 39.2168 36.6571C38.9096 36.6571 38.7048 36.8619 38.3977 37.0666ZM30.1038 33.5852C31.6397 33.5852 32.9708 33.6876 34.4043 33.5852C35.9402 33.4829 36.8618 32.5613 36.9642 31.2302C37.0665 29.8991 36.3498 28.9775 34.7115 28.7727C33.278 28.5679 31.8445 28.6703 30.4109 28.6703C30.3085 28.6703 30.1038 28.8751 30.1038 28.9775C30.1038 30.411 30.1038 31.9469 30.1038 33.5852Z" fill="black"/>
<path d="M68.9111 36.2475C67.8872 36.2475 66.9656 36.2475 66.1465 36.2475C65.3273 36.2475 64.9177 35.8379 64.9177 35.0188C64.9177 34.4044 64.9177 33.7901 64.9177 33.1757C65.0201 32.5613 65.3273 32.1517 66.0441 32.1517C68.3991 32.1517 70.7542 32.1517 73.2116 32.1517C73.9284 32.1517 74.2356 32.5613 74.2356 33.2781C74.2356 35.7355 74.2356 38.2954 74.2356 40.7528C74.2356 41.06 73.9284 41.4696 73.6212 41.6744C71.7781 43.1079 69.6278 43.9271 67.2728 44.2342C63.9962 44.6438 60.9244 44.0294 58.2621 41.9816C55.3951 39.6265 54.1664 36.5547 54.5759 32.9709C55.0879 27.7488 58.4669 24.2674 63.5866 23.4483C66.8632 22.9363 69.935 23.5507 72.5973 25.4961C73.314 26.0081 73.314 26.4177 72.8021 27.0321C72.1877 27.7488 71.5733 28.4656 70.959 29.2847C70.5494 29.7967 70.0374 29.8991 69.4231 29.4895C67.8872 28.4656 66.2489 27.9536 64.4058 28.3632C62.1531 28.7728 60.7196 30.2063 60.2076 32.4589C59.6956 34.9164 60.1052 37.0667 62.2555 38.6026C64.201 40.0361 66.3512 39.9337 68.5015 39.0121C68.7063 38.9097 68.9111 38.705 68.9111 38.5002C68.9111 37.8858 68.9111 37.0667 68.9111 36.2475Z" fill="black"/>
<path d="M90.3114 36.3499C88.366 36.3499 86.4205 36.3499 84.475 36.3499C83.4511 36.3499 82.9391 36.8619 82.9391 37.9882C82.9391 39.6265 82.9391 41.1624 82.9391 42.8007C82.9391 43.7222 82.6319 44.0294 81.7104 44.1318C80.6864 44.1318 79.6625 44.1318 78.7409 44.1318C77.8194 44.1318 77.5122 43.8246 77.5122 42.9031C77.5122 36.9643 77.5122 31.1278 77.5122 25.1889C77.5122 24.165 77.8194 23.8578 78.9457 23.8578C79.8673 23.8578 80.6864 23.8578 81.608 23.8578C82.7343 23.8578 83.0415 24.165 83.0415 25.2913C83.0415 27.032 83.0415 28.8751 83.0415 30.6158C83.0415 30.923 83.0415 31.1278 83.0415 31.435H90.4138C90.4138 31.0254 90.4138 30.5134 90.4138 30.1039C90.4138 28.4656 90.4138 26.8273 90.4138 25.1889C90.4138 24.165 90.8234 23.7554 91.8474 23.7554C92.7689 23.7554 93.7928 23.7554 94.7144 23.7554C95.6359 23.7554 95.9431 24.165 95.9431 25.0866C95.9431 31.0254 95.9431 36.9643 95.9431 42.8007C95.9431 43.6199 95.6359 44.0294 94.7144 44.0294C93.6905 44.0294 92.6665 44.0294 91.745 44.0294C90.8234 44.0294 90.4138 43.6199 90.4138 42.6983C90.2091 40.6504 90.3114 38.6026 90.3114 36.3499Z" fill="black"/>
<path d="M104.135 28.6703C102.496 28.6703 100.96 28.6703 99.4245 28.6703C98.2982 28.6703 97.991 28.3632 97.991 27.1344C97.991 26.4177 97.991 25.7009 97.991 24.9842C97.991 24.165 98.4005 23.7554 99.2197 23.7554C104.339 23.7554 109.459 23.7554 114.579 23.7554C115.398 23.7554 115.705 24.165 115.705 24.9842C115.705 25.8033 115.705 26.6225 115.705 27.4416C115.705 28.3632 115.398 28.6703 114.476 28.6703C112.94 28.6703 111.302 28.6703 109.664 28.6703C109.664 28.9775 109.664 29.2847 109.664 29.5919C109.664 33.8924 109.664 38.193 109.664 42.4935C109.664 43.8246 109.459 44.1318 108.026 44.1318C107.104 44.1318 106.182 44.1318 105.363 44.1318C104.442 44.1318 104.135 43.7223 104.135 42.9031C104.135 38.2954 104.135 33.79 104.135 29.1823C104.135 28.9775 104.135 28.8751 104.135 28.6703Z" fill="black"/>
<path d="M45.8724 33.8924C45.8724 31.0254 45.8724 28.0559 45.8724 25.1889C45.8724 24.165 46.1796 23.8578 47.2036 23.8578C48.2275 23.8578 49.149 23.8578 50.173 23.8578C51.0945 23.8578 51.5041 24.2674 51.5041 25.1889C51.5041 31.1278 51.5041 36.9642 51.5041 42.9031C51.5041 43.927 51.0945 44.2342 50.0706 44.2342C49.149 44.2342 48.2275 44.2342 47.306 44.2342C46.1796 44.2342 45.8724 43.927 45.8724 42.8007C45.8724 39.7288 45.8724 36.7594 45.8724 33.8924Z" fill="black"/>
<path d="M135.877 28.9775H141.201V30.923C141.406 30.7182 141.611 30.6158 141.713 30.5134C143.351 28.7728 145.297 28.2608 147.55 28.8751C149.7 29.4895 150.826 31.0254 150.929 33.1757C151.031 36.8619 150.929 40.5481 150.929 44.2342H145.604C145.604 44.0294 145.604 43.7223 145.604 43.4151C145.604 40.9576 145.604 38.3978 145.604 35.9403C145.604 34.6092 145.092 33.7901 144.068 33.4829C142.942 33.1757 141.713 33.7901 141.406 34.9164C141.304 35.326 141.304 35.7355 141.304 36.1451C141.304 38.8074 141.304 41.3672 141.304 44.1318H135.979L135.877 28.9775Z" fill="white"/>
<path d="M153.796 23.653H159.12V44.2342H153.796V23.653Z" fill="white"/>
<path d="M133.215 38.705V44.1318H127.685V38.705H133.215Z" fill="white"/>
</g>
</svg>
