<svg width="27" height="39" viewBox="0 0 27 39" fill="none" xmlns="http://www.w3.org/2000/svg">
<path d="M4.92378 10.4654C4.88944 10.4199 4.86824 10.3701 4.86824 10.3182V5.43222C4.86824 5.30942 4.96418 5.21099 5.0813 5.21099H13.2819C14.9803 5.21099 16.4507 5.69048 17.6482 6.6336C19.2487 7.8911 20.2041 9.94777 20.2041 12.142C20.2041 13.5191 19.8112 14.8761 19.066 16.0744L19.0246 16.1379C18.1248 17.1837 18.1804 18.8064 19.1538 19.7695C19.6011 20.2067 20.2031 20.4491 20.8453 20.4491C21.5127 20.4491 22.161 20.1814 22.5801 19.7315L22.6902 19.6161C24.2615 17.5679 25.1278 14.9121 25.1278 12.1431C25.1278 9.21528 24.2039 6.41449 22.5265 4.25834C21.013 2.31387 18.1794 0 13.2819 0H0V38.3684H4.86824V19.6056C4.86824 19.5123 4.92479 19.4298 5.00658 19.3969C5.02072 19.3917 5.07626 19.3822 5.07928 19.38C5.14189 19.38 5.20249 19.4086 5.23884 19.4583L20.3859 38.1609L20.5544 38.3684H27L15.6074 24.1475L4.92378 10.4654Z" fill="black"/>
</svg>
