<svg width="170" height="45" viewBox="0 0 170 45" fill="none" xmlns="http://www.w3.org/2000/svg">
<path d="M3.6682 2.16978H-0.641968V1.68304H14.4568V2.16978H10.6689L21.4573 31.6033C24.8309 21.1691 27.4443 13.4561 30.9613 2.16978H27.2147V1.68304H35.1868V2.16978H31.5564L18.4442 43.2353L3.6682 2.16978Z" fill="black"/>
<path d="M52.9651 1.09843C43.186 1.16867 35.1868 12.0878 35.1868 21.6117C35.1868 31.6342 41.0505 43.8598 52.9651 43.8201C64.8796 43.7805 71.0636 30.6185 71.0636 21.6117C71.0636 11.6631 62.7443 1.02819 52.9651 1.09843ZM52.9651 1.472C61.1498 1.472 63.3579 10.5533 63.3579 21.6117C63.3579 36.2031 60.6944 43.4018 52.9651 43.3881C45.2357 43.3743 42.7212 37.4826 42.7212 21.6117C42.7212 11.6699 44.7803 1.472 52.9651 1.472Z" fill="black"/>
<path d="M71.0639 21.97C71.0201 11.1332 79.6534 1.53391 86.9615 1.05765C89.6013 0.869767 92.9945 2.08422 94.9756 2.94936C96.4141 3.57757 99.3507 2.66825 99.8721 1H100.156V15.7618H99.8721C99.8721 15.1324 97.1509 1.42879 86.9615 1.42879C79.4353 1.42879 78.7082 14.7239 78.7082 21.97C78.7082 29.2161 78.9275 43.5611 87.7102 43.5611C91.9648 43.5611 95.1141 41.691 95.9305 37.9079V26.4047H92.3594V25.9147H106.202V26.4047H102.788V43.2223H102.51C102.51 43.2223 101.955 40.7957 99.138 40.8038C95.5381 40.8141 92.1432 43.9562 88.0047 43.9179C77.0602 43.8168 71.1078 32.8068 71.0639 21.97Z" fill="black"/>
<path d="M110.373 32.9888L110.304 1.92996H106.202V1.46472H121.317V1.92996H117.217L117.308 35.9843C118.215 39.8838 119.829 42.8427 125.343 42.8868C130.856 42.9308 134.604 39.6101 135.997 35.072V1.92996H131.304L131.304 1.47842H169.717L169.798 16.3879H169.428C168.716 6.76142 165.018 3.12329 158.552 2.06192C156.326 1.6967 153.993 1.96743 151.041 1.9444V20.9729C153.611 21.1723 156.349 21.0091 158.193 19.4175C159.871 17.9702 160.345 14.6261 160.468 13.2675H160.793V29.8354H160.441C160.339 29.8354 160.205 25.6778 158.193 23.7053C156.169 21.7198 153.589 21.2317 151.041 21.7047V42.0312C154.641 42.0312 157.511 42.3375 160.002 41.6513C167.575 39.5652 170.241 33.1459 170.221 26.7077H170.642V42.5124H140.512V42.0312H143.919V1.92996H136.558V35.072C135.724 38.243 132.675 43.4891 124.86 43.4534C117.594 43.4201 110.388 40.1293 110.373 32.9888Z" fill="black"/>
</svg>
