<svg width="164" height="40" viewBox="0 0 164 40" fill="none" xmlns="http://www.w3.org/2000/svg">
<mask id="mask0_1_859" style="mask-type:luminance" maskUnits="userSpaceOnUse" x="0" y="0" width="164" height="40">
<path d="M163.83 0H0V39.8312H163.83V0Z" fill="white"/>
</mask>
<g mask="url(#mask0_1_859)">
<path d="M0 7.16758H20.8884V22.0147H25.3937C25.3937 21.7075 25.3937 21.5027 25.4961 21.1955C25.5985 19.8644 25.9057 18.6357 26.52 17.5094C27.544 15.5639 29.0799 14.5399 31.2302 14.7447C32.0493 14.8471 32.7661 15.1543 33.1756 15.9735C33.79 17.0998 33.9948 18.3285 33.9948 19.5572C33.9948 23.2434 33.9948 26.8272 33.9948 30.5134C33.9948 30.7182 33.9948 30.923 33.9948 31.1278H38.8073C38.8073 31.0254 38.8073 30.923 38.8073 30.8206C38.8073 26.8272 38.8073 22.8338 38.8073 18.8405C38.8073 17.7142 38.6025 16.6902 38.3977 15.5639C37.9882 13.6184 37.0666 11.9801 35.4283 10.9562C34.0972 10.137 32.5613 9.93221 31.0254 10.0346C28.7727 10.2394 26.9296 11.0585 25.5985 13.004C25.4961 13.1064 25.4961 13.1064 25.2913 13.2088V2.35506H0V7.16758ZM93.5881 0.102393C93.4857 0.102393 93.3833 0.102393 93.3833 0.102393C91.745 0.102393 90.0043 0.102393 88.366 0.102393C88.2636 0.102393 88.0588 0.307182 87.9564 0.51197C87.5468 1.53591 87.2396 2.55985 86.8301 3.58379C83.5535 12.3897 80.3792 21.1955 77.1026 30.0014C76.8979 30.411 76.7955 30.923 76.5907 31.4349C78.229 31.4349 79.8673 31.4349 81.4032 31.4349C81.5056 31.4349 81.7104 31.2302 81.8128 31.0254C82.6319 28.8751 83.4511 26.8272 84.1678 24.6769C85.1917 21.9123 86.3181 19.0453 87.342 16.2806C88.9803 11.9801 90.6186 7.67954 92.2569 3.379C92.7689 2.25267 93.1785 1.22873 93.5881 0.102393ZM62.2555 0C62.5627 0.819152 62.8699 1.53591 63.1771 2.35506C65.7369 8.90827 68.2968 15.4615 70.8566 22.0147C70.959 22.2195 71.0614 22.3219 71.3686 22.3219C72.5973 22.3219 73.7236 22.3219 74.9524 22.3219C75.3619 22.3219 75.7715 22.3219 76.2835 22.3219C74.0308 16.2806 71.7782 10.4442 69.6279 4.50533C69.9351 4.50533 70.0375 4.50533 70.2422 4.50533C72.6997 4.50533 75.2595 4.50533 77.717 4.60773C78.1266 4.60773 78.229 4.50533 78.229 4.09576C78.229 2.96942 78.229 1.84309 78.229 0.716757C78.229 0.204788 78.1266 0.102393 77.6146 0.102393C72.6997 0.102393 67.7848 0.102393 62.7675 0.102393C62.6651 -5.87429e-07 62.5627 0 62.2555 0ZM138.232 22.3219H143.147V10.5466H138.437V13.3112C134.648 7.98673 126.764 9.93221 124.716 14.7447C126.047 15.6663 127.276 16.5878 128.607 17.407C129.938 14.8471 132.6 14.2328 134.75 14.9495C135.877 15.3591 136.798 16.0758 137.515 17.2022C138.539 18.8405 138.641 20.4788 138.232 22.3219ZM7.98673 11.0585C7.98673 11.2633 7.98673 11.3657 7.98673 11.5705C7.98673 17.9189 7.98673 24.3698 7.98673 30.7182C7.98673 31.1278 8.08912 31.2301 8.4987 31.2301C9.72742 31.2301 10.9562 31.2301 12.1849 31.2301C12.5945 31.2301 12.7992 31.0254 12.7992 30.5134C12.7992 24.2674 12.7992 18.0213 12.7992 11.6729C12.7992 11.5705 12.7992 11.3657 12.7992 11.2633C12.6968 11.1609 12.5945 10.9562 12.4921 10.9562C10.9562 11.0585 9.52264 11.0585 7.98673 11.0585ZM115.705 13.6184L115.603 13.516C115.603 13.3112 115.603 13.2088 115.603 13.004C115.603 12.3897 115.603 11.6729 115.603 11.0585C115.603 10.5466 115.5 10.4442 114.988 10.4442C113.76 10.4442 112.531 10.4442 111.302 10.4442C110.893 10.4442 110.688 10.5466 110.688 11.0585C110.688 14.6423 110.688 18.1237 110.688 21.7075C110.688 21.9123 110.688 22.0147 110.688 22.3219C112.224 22.3219 113.657 22.3219 115.193 22.3219C115.5 22.3219 115.5 22.1171 115.5 21.8099C115.603 20.8884 115.603 19.8644 115.705 18.9429C116.012 17.2022 116.934 16.0758 118.572 15.6663C119.801 15.3591 121.03 15.2567 122.258 15.4615C122.668 15.4615 122.77 15.3591 122.873 14.9495C122.873 13.8232 122.975 12.7992 122.975 11.6729C122.975 11.2633 122.975 10.7514 122.975 10.3418C119.903 9.93221 117.343 10.5466 115.705 13.6184ZM93.5881 11.4681C93.5881 11.5705 93.5881 11.5705 93.5881 11.6729C94.3048 12.6968 94.9192 13.8232 95.6359 14.8471C95.7383 14.9495 95.9431 14.9495 96.0455 14.9495C97.0695 14.4375 98.1958 14.3351 99.3221 14.5399C101.37 14.8471 102.701 16.6902 102.804 18.9429H98.1958V22.3219C98.2982 22.3219 98.2982 22.3219 98.2982 22.3219C101.165 22.3219 104.032 22.3219 107.002 22.4243C107.309 22.4243 107.411 22.2195 107.411 21.9123C107.411 20.8884 107.411 19.8644 107.309 18.8405C107.104 16.6902 106.387 14.7447 104.954 13.1064C103.52 11.4681 101.677 10.7514 99.6293 10.4442C97.479 10.137 95.4312 10.4442 93.5881 11.4681ZM48.0228 14.9495C49.1491 14.3352 50.2754 14.2328 51.4018 14.3352C53.3472 14.4375 55.1903 16.5878 54.9855 18.7381H50.4802V22.2195C50.685 22.2195 50.8898 22.2195 51.0946 22.2195C53.2449 22.2195 55.3951 22.2195 57.6478 22.2195C58.1598 22.2195 58.6717 22.2195 59.2861 22.3219C59.6957 22.3219 59.7981 22.1171 59.7981 21.7075C59.6957 20.4788 59.7981 19.2501 59.5933 18.0213C59.0813 15.0519 57.7502 12.6968 55.1903 11.2633C53.3472 10.2394 51.4018 10.0346 49.3539 10.2394C48.1252 10.3418 46.9988 10.7514 45.8725 11.4681C46.5892 12.5945 47.306 13.8232 48.0228 14.9495ZM163.83 22.3219C163.933 20.6836 163.933 19.1477 163.523 17.6118C162.806 14.5399 161.168 12.2873 158.403 11.0585C156.458 10.2394 154.41 10.137 152.465 10.649C151.645 10.8538 150.826 11.2633 149.905 11.5705C150.724 12.7992 151.441 14.028 152.26 15.1543C156.253 13.4136 159.12 15.4615 159.325 18.9429H154.615V22.4243H163.83V22.3219ZM41.1624 22.2195C41.3672 23.2434 41.5719 24.2674 41.8791 25.1889C42.6983 27.8512 44.3366 29.7966 46.794 30.8206C48.5347 31.5373 50.3778 31.7421 52.1185 31.5373C54.2688 31.3325 56.3167 30.5134 57.8526 28.6703C58.4669 27.9535 58.9789 27.032 59.2861 26.1105C57.8526 25.4961 56.5215 24.8817 55.1903 24.2674C55.0879 24.4721 54.9855 24.6769 54.9855 24.8817C54.576 25.9057 53.8592 26.6224 52.9377 26.9296C51.9137 27.3392 50.8898 27.2368 49.9682 27.1344C49.0467 27.032 48.1251 26.6224 47.4084 25.9057C46.4868 24.9841 46.0773 23.8578 45.8725 22.5267C45.8725 22.4243 45.6677 22.1171 45.5653 22.1171C44.1318 22.2195 42.6983 22.2195 41.1624 22.2195ZM88.8779 22.3219C89.0827 23.141 89.0827 23.9602 89.2875 24.6769C90.0043 27.3392 91.3354 29.4895 93.7928 30.7182C96.7623 32.1517 99.7317 32.2541 102.804 31.0254C104.749 30.2062 106.08 28.5679 107.002 26.4176C105.671 25.8033 104.339 25.1889 103.008 24.4722C102.906 24.6769 102.906 24.7793 102.804 24.9841C102.292 26.3152 101.37 27.1344 100.039 27.4416C99.4245 27.544 98.9125 27.544 98.2982 27.544C96.9671 27.4416 95.8407 27.032 94.9192 26.0081C94.2024 25.1889 93.7928 24.165 93.5881 23.0386C93.5881 22.8338 93.3833 22.6291 93.2809 22.6291C91.745 22.3219 90.3115 22.3219 88.8779 22.3219ZM159.325 24.4722C159.223 24.7793 159.12 25.0865 158.915 25.2913C158.403 26.3152 157.584 27.032 156.56 27.3392C155.639 27.544 154.717 27.6464 153.796 27.4416C152.669 27.2368 151.645 26.6224 150.826 25.4961C150.314 24.6769 149.905 23.8578 149.802 22.8338C149.802 22.4243 149.598 22.3219 149.29 22.3219C148.164 22.3219 147.038 22.3219 145.911 22.3219C145.707 22.3219 145.502 22.3219 145.195 22.3219C145.297 23.0386 145.399 23.653 145.502 24.2674C146.116 26.8272 147.242 28.8751 149.393 30.3086C150.929 31.3325 152.669 31.7421 154.512 31.8445C156.048 31.9469 157.584 31.6397 159.018 31.0254C161.066 30.1038 162.397 28.5679 163.216 26.3152C161.987 25.7009 160.758 25.0865 159.325 24.4722ZM124.716 32.1517C124.716 33.5852 125.125 34.9163 125.74 36.0427C127.071 38.2953 129.221 39.2169 131.576 39.6264C133.01 39.9336 134.443 39.8312 135.877 39.6264C138.129 39.2169 139.973 38.1929 141.406 36.2475C142.02 35.4283 142.43 34.5068 142.942 33.5852C141.406 32.9709 139.973 32.4589 138.539 31.9469C138.232 33.1756 137.617 34.0972 136.798 34.8139C135.672 35.6331 134.341 35.8379 133.112 35.7355C132.191 35.6331 131.269 35.4283 130.552 34.7115C129.836 34.0972 129.528 33.1756 129.426 32.2541L124.716 32.1517ZM137.413 29.1823C136.798 28.1583 136.286 27.2368 135.774 26.3152C135.672 26.1105 135.467 26.0081 135.262 26.1105C134.341 26.4176 133.317 26.52 132.293 26.2128C130.552 25.8033 129.528 24.5745 129.016 22.7315C129.016 22.5267 128.812 22.3219 128.709 22.3219C127.276 22.3219 125.842 22.3219 124.306 22.3219C124.409 24.8817 126.047 28.3631 128.812 29.899C131.679 31.5373 135.57 30.923 137.413 29.1823Z" fill="#010101"/>
<path d="M0 7.16756V2.35504H25.2913V13.3112C25.4961 13.2088 25.4961 13.1064 25.5985 13.1064C26.9296 11.1609 28.8751 10.3418 31.0254 10.137C32.5613 10.0346 34.0972 10.2394 35.4283 11.0585C37.0666 12.0825 37.9882 13.7208 38.3977 15.6663C38.6025 16.6902 38.8073 17.8165 38.8073 18.9429C38.8073 22.9362 38.8073 26.9296 38.8073 30.9229C38.8073 31.0253 38.8073 31.1277 38.8073 31.2301H33.9948C33.9948 31.0253 33.9948 30.8206 33.9948 30.6158C33.9948 26.9296 33.9948 23.3458 33.9948 19.6596C33.9948 18.4309 33.79 17.2022 33.1756 16.0758C32.6637 15.2567 32.0493 14.9495 31.2302 14.8471C29.0799 14.6423 27.544 15.6663 26.52 17.6117C25.9057 18.7381 25.5985 19.9668 25.4961 21.2979C25.4961 21.6051 25.4961 21.8099 25.3937 22.1171H20.8884V7.16756H0Z" fill="#010101"/>
<path d="M93.5881 0.102393C93.1785 1.22873 92.769 2.25267 92.3594 3.2766C90.7211 7.57715 89.0828 11.8777 87.4445 16.1782C86.4205 18.9429 85.2942 21.8099 84.2703 24.5745C83.4511 26.7248 82.632 28.7727 81.9152 30.923C81.8128 31.1278 81.608 31.3325 81.5056 31.3325C79.9697 31.3325 78.3314 31.3325 76.6931 31.3325C76.8979 30.8206 77.0003 30.3086 77.2051 29.899C80.4817 21.0931 83.6559 12.2873 86.9325 3.48139C87.3421 2.45745 87.6493 1.43351 88.0588 0.409575C88.1612 0.204787 88.2636 0 88.4684 0C90.1067 0 91.8474 0 93.4857 0C93.3833 0 93.4857 0.102393 93.5881 0.102393Z" fill="#010101"/>
<path d="M62.2556 0C62.4604 0 62.5628 0 62.7676 0C67.6825 0 72.5974 0 77.6147 0C78.1267 0 78.2291 0.102393 78.2291 0.614363C78.2291 1.7407 78.2291 2.86703 78.2291 3.99336C78.2291 4.40294 78.1267 4.50533 77.7171 4.50533C75.2596 4.50533 72.6998 4.50533 70.2423 4.40294C70.0376 4.40294 69.9352 4.40294 69.628 4.40294C71.8806 10.3418 74.0309 16.1782 76.2836 22.1171C75.7716 22.1171 75.362 22.1171 74.9525 22.1171C73.7237 22.1171 72.5974 22.1171 71.3687 22.1171C71.1639 22.1171 70.9591 22.0147 70.8567 21.8099C68.2969 15.2567 65.737 8.70349 63.1772 2.15027C62.9724 1.53591 62.6652 0.716758 62.2556 0Z" fill="#010101"/>
<path d="M138.232 22.3219C138.641 20.4788 138.437 18.8405 137.617 17.3046C137.003 16.1783 136.081 15.4615 134.853 15.0519C132.702 14.3352 130.04 14.8471 128.709 17.5094C127.378 16.5878 126.047 15.6663 124.818 14.8471C126.764 10.0346 134.648 8.08914 138.539 13.4136V10.649H143.249V22.4243L138.232 22.3219Z" fill="#010101"/>
<path d="M7.98682 11.0585C9.52273 11.0585 10.9562 11.0585 12.4921 11.0585C12.5945 11.0585 12.6969 11.2633 12.7993 11.3657C12.7993 11.4681 12.7993 11.5705 12.7993 11.7753C12.7993 18.0213 12.7993 24.2674 12.7993 30.6158C12.7993 31.0254 12.5945 31.3325 12.185 31.3325C10.9562 31.3325 9.72751 31.3325 8.49879 31.3325C8.08921 31.3325 7.98682 31.2301 7.98682 30.8206C7.98682 24.4721 7.98682 18.0213 7.98682 11.6729C7.98682 11.3657 7.98682 11.2633 7.98682 11.0585Z" fill="#010101"/>
<path d="M115.705 13.6184C117.343 10.5466 119.903 9.93221 122.975 10.137C122.975 10.649 122.975 11.0585 122.975 11.4681C122.975 12.5945 122.873 13.6184 122.873 14.7447C122.873 15.2567 122.77 15.3591 122.258 15.2567C121.03 15.1543 119.801 15.1543 118.572 15.4615C116.934 15.8711 116.012 17.0998 115.705 18.7381C115.5 19.6596 115.5 20.6836 115.5 21.6051C115.5 21.8099 115.5 22.1171 115.193 22.1171C113.76 22.1171 112.224 22.1171 110.688 22.1171C110.688 21.9123 110.688 21.7075 110.688 21.5027C110.688 17.9189 110.688 14.4375 110.688 10.8538C110.688 10.3418 110.79 10.2394 111.302 10.2394C112.531 10.2394 113.76 10.2394 114.988 10.2394C115.398 10.2394 115.603 10.3418 115.603 10.8538C115.603 11.4681 115.603 12.1849 115.603 12.7992C115.603 13.004 115.603 13.1064 115.603 13.3112C115.603 13.516 115.705 13.6184 115.705 13.6184Z" fill="#010101"/>
<path d="M93.5881 11.4681C95.5336 10.3418 97.4791 10.0346 99.6294 10.3418C101.677 10.5466 103.52 11.3657 104.954 13.004C106.387 14.5399 107.104 16.4854 107.309 18.7381C107.411 19.762 107.411 20.786 107.411 21.8099C107.411 22.1171 107.309 22.3219 107.002 22.3219C104.135 22.3219 101.268 22.2195 98.2983 22.2195H98.1959V18.8405H102.804C102.701 16.6902 101.37 14.7447 99.3222 14.4376C98.1959 14.2328 97.0695 14.4375 96.0456 14.8471C95.9432 14.9495 95.636 14.8471 95.636 14.7447C94.9193 13.7208 94.3049 12.5945 93.5881 11.5705C93.5881 11.5705 93.5881 11.5705 93.5881 11.4681Z" fill="#010101"/>
<path d="M48.0227 14.9495C47.2035 13.7208 46.4868 12.5945 45.77 11.4681C46.8964 10.7514 48.0227 10.3418 49.2514 10.2394C51.2993 10.0346 53.2448 10.2394 55.0879 11.2633C57.6477 12.6968 59.0812 15.0519 59.4908 18.0213C59.6956 19.2501 59.5932 20.4788 59.6956 21.7075C59.6956 22.1171 59.5932 22.3219 59.1836 22.3219C58.6717 22.3219 58.1597 22.2195 57.5453 22.2195C55.3951 22.2195 53.2448 22.2195 50.9921 22.2195C50.7873 22.2195 50.6849 22.2195 50.3777 22.2195V18.7381H54.8831C54.9855 16.5878 53.2448 14.4375 51.2993 14.3351C50.2754 14.2328 49.149 14.3352 48.0227 14.9495Z" fill="#010101"/>
<path d="M163.83 22.3219H154.615V18.8405H159.222C159.018 15.3591 156.151 13.3112 152.157 15.0519C151.441 13.9256 150.621 12.7992 149.802 11.4681C150.724 11.1609 151.543 10.7513 152.362 10.5466C154.41 10.137 156.355 10.137 158.301 10.9561C161.168 12.0825 162.806 14.3351 163.421 17.5093C163.83 19.1477 163.933 20.6836 163.83 22.3219Z" fill="#010101"/>
<path d="M41.1624 22.2195C42.6983 22.2195 44.1318 22.2195 45.5653 22.2195C45.6677 22.2195 45.7701 22.4243 45.8725 22.6291C46.0773 23.9602 46.5892 25.0865 47.4084 26.0081C48.1251 26.7248 48.9443 27.1344 49.9682 27.2368C50.9922 27.3392 52.0161 27.4416 52.9377 27.032C53.8592 26.7248 54.576 25.9057 54.9855 24.9841C55.0879 24.7793 55.1903 24.5745 55.1903 24.3698C56.5214 24.9841 57.8526 25.5985 59.2861 26.2128C58.9789 27.2368 58.4669 28.0559 57.8526 28.7727C56.3167 30.6158 54.3712 31.4349 52.1185 31.6397C50.2754 31.8445 48.4323 31.6397 46.794 30.923C44.3366 29.7966 42.6983 27.9535 41.8791 25.2913C41.4695 24.2674 41.3671 23.2434 41.1624 22.2195Z" fill="#010101"/>
<path d="M88.7756 22.3219C90.3115 22.3219 91.6427 22.3219 93.0762 22.3219C93.1786 22.3219 93.3834 22.6291 93.3834 22.7315C93.5882 23.8578 93.9977 24.8817 94.7145 25.7009C95.636 26.7248 96.7624 27.1344 98.0935 27.2368C98.7079 27.2368 99.2198 27.2368 99.8342 27.1344C101.165 26.9296 102.087 26.1105 102.599 24.677C102.701 24.5746 102.701 24.3698 102.804 24.165C104.135 24.7794 105.466 25.3937 106.797 26.1105C105.978 28.2607 104.647 29.899 102.599 30.7182C99.6294 31.9469 96.5576 31.9469 93.5882 30.411C91.1307 29.1823 89.7996 27.032 89.0828 24.3698C89.0828 23.8578 88.9804 23.1411 88.7756 22.3219Z" fill="#010101"/>
<path d="M159.325 24.4721C160.656 25.0865 161.987 25.7009 163.318 26.4176C162.397 28.5679 161.066 30.2062 159.12 31.1277C157.687 31.7421 156.151 32.0493 154.615 31.9469C152.772 31.8445 151.031 31.5373 149.495 30.411C147.447 28.9775 146.219 26.9296 145.604 24.3697C145.502 23.7554 145.4 23.141 145.297 22.4243C145.604 22.4243 145.809 22.4243 146.014 22.4243C147.14 22.4243 148.267 22.4243 149.393 22.4243C149.7 22.4243 149.905 22.5266 149.905 22.9362C150.007 23.8578 150.314 24.7793 150.929 25.5985C151.646 26.7248 152.669 27.2368 153.898 27.544C154.82 27.7487 155.741 27.7487 156.663 27.4416C157.789 27.1344 158.506 26.52 159.018 25.3937C159.12 24.9841 159.223 24.7793 159.325 24.4721Z" fill="#010101"/>
<path d="M124.716 32.1517H129.221C129.426 33.0733 129.733 33.8924 130.347 34.6092C131.064 35.3259 131.986 35.5307 132.907 35.6331C134.238 35.7355 135.467 35.6331 136.594 34.7116C137.515 33.9948 138.027 33.0733 138.334 31.8445C139.768 32.3565 141.201 32.8685 142.737 33.4828C142.225 34.4044 141.816 35.3259 141.201 36.1451C139.768 38.0906 137.925 39.1145 135.672 39.5241C134.238 39.7289 132.805 39.8313 131.371 39.5241C129.016 39.1145 126.866 38.193 125.535 35.9403C125.125 34.814 124.716 33.5852 124.716 32.1517Z" fill="#010101"/>
<path d="M137.413 29.1823C135.569 30.923 131.679 31.5374 128.811 29.899C126.047 28.3631 124.409 24.7794 124.306 22.3219C125.74 22.3219 127.173 22.3219 128.709 22.3219C128.811 22.3219 129.016 22.5267 129.016 22.7315C129.528 24.4722 130.552 25.7009 132.293 26.2129C133.317 26.5201 134.238 26.4177 135.262 26.1105C135.569 26.0081 135.672 26.1105 135.774 26.3153C136.286 27.2368 136.798 28.1584 137.413 29.1823Z" fill="#010101"/>
</g>
</svg>
